<?xml version="1.0" encoding="UTF-8" standalone="no"?>
<svg
   version="1.1"
   id="Layer_1"
   x="0px"
   y="0px"
   viewBox="0 0 122.88 69.27"
   style="enable-background:new 0 0 122.88 69.27"
   xml:space="preserve"
   sodipodi:docname="mouth-icon.svg"
   inkscape:version="1.3.2 (091e20e, 2023-11-25, custom)"
   xmlns:inkscape="http://www.inkscape.org/namespaces/inkscape"
   xmlns:sodipodi="http://sodipodi.sourceforge.net/DTD/sodipodi-0.dtd"
   xmlns="http://www.w3.org/2000/svg"
   xmlns:svg="http://www.w3.org/2000/svg"><defs
     id="defs1" /><sodipodi:namedview
     id="namedview1"
     pagecolor="#ffffff"
     bordercolor="#000000"
     borderopacity="0.25"
     inkscape:showpageshadow="2"
     inkscape:pageopacity="0.0"
     inkscape:pagecheckerboard="0"
     inkscape:deskcolor="#d1d1d1"
     inkscape:zoom="9.5377606"
     inkscape:cx="61.439999"
     inkscape:cy="34.65174"
     inkscape:window-width="1920"
     inkscape:window-height="1009"
     inkscape:window-x="-8"
     inkscape:window-y="-8"
     inkscape:window-maximized="1"
     inkscape:current-layer="g1" /><style
     type="text/css"
     id="style1">.st0{fill-rule:evenodd;clip-rule:evenodd;}</style><g
     id="g1"><path
       class="st0"
       d="M61.86,26.32c14.25-5.59,26.43-1.02,37.55,8.84c-25.23,10.75-50.46,10.64-75.69,0 C34.81,25.67,46.97,20.48,61.86,26.32L61.86,26.32z M61.89,7.67c11.44-8.97,22.16-9.54,32.34-3.66 c10.12,5.85,19.51,18.25,28.4,35.12c0.48,0.91,0.26,2.01-0.47,2.67l0,0c-20.16,18.41-40.4,27.51-60.72,27.46 c-20.31-0.05-40.55-9.26-60.71-27.46c-0.77-0.7-0.94-1.82-0.46-2.7l0,0c8.85-16.25,18.2-28.85,28.42-34.96 C38.97-1.99,49.94-1.72,61.89,7.67L61.89,7.67z M92.01,7.85c-8.87-5.12-18.37-4.29-28.69,4.38l0,0c-0.81,0.68-2.01,0.7-2.84,0 c-10.8-9.08-20.53-9.63-29.51-4.26C21.81,13.42,13.24,24.84,5,39.69C23.88,56.37,42.7,64.8,61.44,64.85 c18.75,0.05,37.57-8.3,56.46-25.17C109.63,24.29,101.05,13.07,92.01,7.85L92.01,7.85z"
       id="path1"
       style="fill:#0a3c8c;fill-opacity:1" /></g></svg>
