<?xml version="1.0" encoding="UTF-8" standalone="no"?>
<svg
   aria-hidden="true"
   focusable="false"
   data-prefix="fal"
   data-icon="user-doctor"
   class="svg-inline--fa fa-user-doctor"
   role="img"
   viewBox="0 0 448 512"
   version="1.1"
   id="svg1"
   sodipodi:docname="user-doctor.svg"
   inkscape:version="1.3.2 (091e20e, 2023-11-25, custom)"
   xmlns:inkscape="http://www.inkscape.org/namespaces/inkscape"
   xmlns:sodipodi="http://sodipodi.sourceforge.net/DTD/sodipodi-0.dtd"
   xmlns="http://www.w3.org/2000/svg"
   xmlns:svg="http://www.w3.org/2000/svg">
  <defs
     id="defs1" />
  <sodipodi:namedview
     id="namedview1"
     pagecolor="#ffffff"
     bordercolor="#000000"
     borderopacity="0.25"
     inkscape:showpageshadow="2"
     inkscape:pageopacity="0.0"
     inkscape:pagecheckerboard="0"
     inkscape:deskcolor="#d1d1d1"
     inkscape:zoom="1.15625"
     inkscape:cx="224"
     inkscape:cy="256"
     inkscape:window-width="1440"
     inkscape:window-height="830"
     inkscape:window-x="-6"
     inkscape:window-y="-6"
     inkscape:window-maximized="1"
     inkscape:current-layer="svg1" />
  <path
     fill="currentColor"
     d="M224 32a96 96 0 1 1 0 192 96 96 0 1 1 0-192zM96 128a128 128 0 1 0 256 0A128 128 0 1 0 96 128zm48 288a16 16 0 1 1 32 0 16 16 0 1 1 -32 0zm32-45.3V336l1.2 0h93.6c5.8 0 11.5 .3 17.2 1v33.3c-23.1 6.9-40 28.3-40 53.7v24c0 8.8 7.2 16 16 16h16c8.8 0 16-7.2 16-16s-7.2-16-16-16v-8c0-13.3 10.7-24 24-24s24 10.7 24 24v8c-8.8 0-16 7.2-16 16s7.2 16 16 16h16c8.8 0 16-7.2 16-16V424c0-25.4-16.9-46.8-40-53.7V344.5c55.6 20 95.5 73 96 135.5H32c.5-68.2 48.2-125.3 112-140.2v30.9c-18.6 6.6-32 24.4-32 45.3c0 26.5 21.5 48 48 48s48-21.5 48-48c0-20.9-13.4-38.7-32-45.3zm1.2-66.7C79.3 304 0 383.3 0 481.2c0 17 13.8 30.8 30.8 30.8H417.2c17 0 30.8-13.8 30.8-30.8C448 383.3 368.7 304 270.8 304H177.2z"
     id="path1"
     style="fill:#0a3c8c;fill-opacity:1" />
</svg>
