<?xml version="1.0" encoding="UTF-8" standalone="no"?>
<svg
   aria-hidden="true"
   focusable="false"
   data-prefix="fal"
   data-icon="viruses"
   class="svg-inline--fa fa-viruses"
   role="img"
   viewBox="0 0 640 512"
   version="1.1"
   id="svg1"
   sodipodi:docname="viruses.svg"
   inkscape:version="1.3.2 (091e20e, 2023-11-25, custom)"
   xmlns:inkscape="http://www.inkscape.org/namespaces/inkscape"
   xmlns:sodipodi="http://sodipodi.sourceforge.net/DTD/sodipodi-0.dtd"
   xmlns="http://www.w3.org/2000/svg"
   xmlns:svg="http://www.w3.org/2000/svg">
  <defs
     id="defs1" />
  <sodipodi:namedview
     id="namedview1"
     pagecolor="#ffffff"
     bordercolor="#000000"
     borderopacity="0.25"
     inkscape:showpageshadow="2"
     inkscape:pageopacity="0.0"
     inkscape:pagecheckerboard="0"
     inkscape:deskcolor="#d1d1d1"
     inkscape:zoom="1.15"
     inkscape:cx="320"
     inkscape:cy="255.65217"
     inkscape:window-width="1440"
     inkscape:window-height="830"
     inkscape:window-x="-6"
     inkscape:window-y="-6"
     inkscape:window-maximized="1"
     inkscape:current-layer="svg1" />
  <path
     fill="currentColor"
     d="M78.9 327.8l15.2-15.2c30.2-30.2 81.9-8.8 81.9 33.9V368c0 8.8 7.2 16 16 16s16-7.2 16-16V346.5c0-42.8 51.7-64.2 81.9-33.9l15.2 15.2c6.2 6.2 16.4 6.2 22.6 0s6.2-16.4 0-22.6l-15.2-15.2c-30.2-30.2-8.8-81.9 33.9-81.9H368c8.8 0 16-7.2 16-16s-7.2-16-16-16H346.5c-42.8 0-64.2-51.7-33.9-81.9l15.2-15.2c6.2-6.2 6.2-16.4 0-22.6s-16.4-6.2-22.6 0L289.9 71.4C259.7 101.7 208 80.3 208 37.5V16c0-8.8-7.2-16-16-16s-16 7.2-16 16V37.5c0 42.8-51.7 64.2-81.9 33.9L78.9 56.2c-6.2-6.2-16.4-6.3-22.6 0s-6.2 16.4 0 22.6L71.4 94.1c30.2 30.2 8.8 81.9-33.9 81.9H16c-8.8 0-16 7.2-16 16s7.2 16 16 16H37.5c42.8 0 64.2 51.7 33.9 81.9L56.2 305.1c-6.2 6.2-6.3 16.4 0 22.6s16.4 6.2 22.6 0zm7-135.8c22.8-17.4 34.9-46.6 31.1-75c28.5 3.8 57.6-8.3 75-31.1c8.4 11 19.5 19.5 32 24.9c13.4 5.8 28.3 8.1 43 6.1c-3.8 28.5 8.3 57.6 31.1 75c-22.8 17.4-34.9 46.6-31.1 75c-28.5-3.8-57.6 8.3-75 31.1c-17.4-22.8-46.6-34.9-75-31.1c3.8-28.5-8.3-57.6-31.1-75zm82.1 0a24 24 0 1 0 0-48 24 24 0 1 0 0 48zm72 32a16 16 0 1 0 -32 0 16 16 0 1 0 32 0zM496 352a16 16 0 1 0 -32 0 16 16 0 1 0 32 0zm101.8 95.2C574.5 423.9 591 384 624 384c8.8 0 16-7.2 16-16s-7.2-16-16-16c-33 0-49.5-39.9-26.2-63.2c6.2-6.2 6.2-16.4 0-22.6s-16.4-6.2-22.6 0C551.9 289.5 512 273 512 240c0-8.8-7.2-16-16-16s-16 7.2-16 16c0 33-39.9 49.5-63.2 26.2c-6.2-6.2-16.4-6.2-22.6 0s-6.2 16.4 0 22.6C417.5 312.1 401 352 368 352c-8.8 0-16 7.2-16 16s7.2 16 16 16c33 0 49.5 39.9 26.2 63.2c-6.2 6.2-6.2 16.4 0 22.6s16.4 6.2 22.6 0C440.1 446.5 480 463 480 496c0 8.8 7.2 16 16 16s16-7.2 16-16c0-33 39.9-49.5 63.2-26.2c6.2 6.2 16.4 6.2 22.6 0s6.2-16.4 0-22.6zM579.5 368c-17 14.5-26.3 36.8-24.5 59.1c-22.3-1.8-44.6 7.4-59.1 24.5c-14.5-17-36.8-26.3-59.1-24.5c1.8-22.3-7.4-44.6-24.5-59.1c17-14.5 26.3-36.8 24.5-59.1c22.3 1.8 44.6-7.4 59.1-24.5c8.5 10 19.7 17.3 32 21.3c8.7 2.8 17.9 3.9 27.1 3.2c-1.8 22.3 7.4 44.6 24.5 59.1z"
     id="path1"
     style="fill:#0a3c8c;fill-opacity:1" />
</svg>
